<svg width="40" height="41" viewBox="0 0 40 41" fill="none" xmlns="http://www.w3.org/2000/svg">
<path d="M39.405 8.7283C38.0133 9.34496 36.5183 9.76163 34.9466 9.94997C36.5683 8.97962 37.7815 7.45241 38.36 5.6533C36.8364 6.55828 35.1689 7.19529 33.43 7.53663C32.2606 6.28807 30.7117 5.46051 29.0239 5.18242C27.336 4.90434 25.6035 5.19128 24.0954 5.99872C22.5873 6.80616 21.3879 8.0889 20.6836 9.6478C19.9792 11.2067 19.8092 12.9545 20.2 14.62C17.1128 14.465 14.0927 13.6625 11.3357 12.2648C8.57868 10.8671 6.14638 8.90523 4.19665 6.50663C3.52998 7.65663 3.14665 8.98997 3.14665 10.41C3.1459 11.6883 3.4607 12.947 4.06311 14.0745C4.66552 15.202 5.53691 16.1634 6.59998 16.8733C5.36711 16.8341 4.16143 16.5009 3.08331 15.9016V16.0016C3.08319 17.7945 3.70337 19.5323 4.83862 20.92C5.97387 22.3077 7.55426 23.2598 9.31165 23.615C8.16795 23.9245 6.96887 23.9701 5.80498 23.7483C6.30081 25.291 7.26664 26.64 8.56726 27.6065C9.86788 28.573 11.4382 29.1086 13.0583 29.1383C10.308 31.2973 6.91146 32.4684 3.41498 32.4633C2.79561 32.4635 2.17677 32.4273 1.56165 32.355C5.11077 34.6369 9.24221 35.848 13.4616 35.8433C27.745 35.8433 35.5533 24.0133 35.5533 13.7533C35.5533 13.42 35.545 13.0833 35.53 12.75C37.0488 11.6516 38.3598 10.2915 39.4016 8.7333L39.405 8.7283Z" fill="#FEFEFF"/>
</svg>
