<svg width="37" height="39" viewBox="0 0 37 39" fill="none" xmlns="http://www.w3.org/2000/svg">
<g clip-path="url(#clip0_1207_678)">
<path d="M24.9756 12.375C23.8994 5.74727 21.3611 1.09375 18.4072 1.09375C15.4533 1.09375 12.915 5.74727 11.8389 12.375H24.9756ZM11.2822 19.5C11.2822 21.1477 11.3713 22.7285 11.5271 24.25H25.2799C25.4357 22.7285 25.5248 21.1477 25.5248 19.5C25.5248 17.8523 25.4357 16.2715 25.2799 14.75H11.5271C11.3713 16.2715 11.2822 17.8523 11.2822 19.5ZM35.3811 12.375C33.2584 7.33555 28.9611 3.43906 23.6545 1.86562C25.4654 4.37422 26.7123 8.15195 27.3654 12.375H35.3811ZM13.1525 1.86562C7.85332 3.43906 3.54863 7.33555 1.4334 12.375H9.44902C10.0947 8.15195 11.3416 4.37422 13.1525 1.86562ZM36.1752 14.75H27.6623C27.8182 16.3086 27.9072 17.9043 27.9072 19.5C27.9072 21.0957 27.8182 22.6914 27.6623 24.25H36.1678C36.576 22.7285 36.8061 21.1477 36.8061 19.5C36.8061 17.8523 36.576 16.2715 36.1752 14.75ZM8.90723 19.5C8.90723 17.9043 8.99629 16.3086 9.15215 14.75H0.639258C0.238477 16.2715 0.000976562 17.8523 0.000976562 19.5C0.000976562 21.1477 0.238477 22.7285 0.639258 24.25H9.14473C8.99629 22.6914 8.90723 21.0957 8.90723 19.5ZM11.8389 26.625C12.915 33.2527 15.4533 37.9062 18.4072 37.9062C21.3611 37.9062 23.8994 33.2527 24.9756 26.625H11.8389ZM23.6619 37.1344C28.9611 35.5609 33.2658 31.6645 35.3885 26.625H27.3729C26.7197 30.848 25.4729 34.6258 23.6619 37.1344ZM1.4334 26.625C3.55605 31.6645 7.85332 35.5609 13.16 37.1344C11.349 34.6258 10.1021 30.848 9.44902 26.625H1.4334Z" fill="#FEFEFF"/>
</g>
<defs>
<clipPath id="clip0_1207_678">
<rect width="36.8144" height="38" fill="white" transform="translate(0 0.5)"/>
</clipPath>
</defs>
</svg>
